<?xml version="1.0" encoding="UTF-8"?>
<svg width="151px" height="28px" viewBox="0 0 151 28" version="1.1" xmlns="http://www.w3.org/2000/svg" xmlns:xlink="http://www.w3.org/1999/xlink">
    <title>BRICK</title>
    <g id="Landings" stroke="none" stroke-width="1" fill="none" fill-rule="evenodd">
        <g id="Brick" transform="translate(-192.000000, -170.000000)" fill-rule="nonzero">
            <g id="BRICK" transform="translate(192.000000, 170.000000)">
                <g id="Group">
                    <path d="M41.1568,24.0144 L41.1568,3.1856 C41.1568,3.1208 41.1416,3.06 41.1376,2.996 C41.0376,1.432 39.7456,0.1856 38.1568,0.1856 L3.044,0.1856 C1.3904,0.1856 0.044,1.532 0.044,3.1856 L0.044,24.0144 C0.044,25.668 1.3904,27.0144 3.044,27.0144 L4.1608,27.0144 L38.156,27.0144 C39.8104,27.0144 41.1568,25.668 41.1568,24.0144 Z" id="Path" fill="#000000"></path>
                    <g id="XMLID_12_" transform="translate(0.800000, 6.400000)" fill="#F9BD17">
                        <rect id="Rectangle" x="0.4432" y="0.3696" width="38.712" height="3.712"></rect>
                    </g>
                    <g id="XMLID_11_" transform="translate(0.800000, 11.200000)" fill="#F9BD17">
                        <path d="M39.1552,0.4816 L39.1552,12.8176 C39.1552,13.8096 38.3472,14.6176 37.3552,14.6176 L2.2432,14.6176 C1.2512,14.6176 0.4432,13.8096 0.4432,12.8176 L0.4432,0.4816 L39.1552,0.4816 Z" id="Path"></path>
                    </g>
                    <g id="XMLID_10_" transform="translate(0.800000, 0.800000)" fill="#F9BD17">
                        <path d="M39.1552,2.3856 L39.1552,4.7696 L0.4432,4.7696 L0.4432,2.3856 C0.4432,1.3936 1.2512,0.5856 2.2432,0.5856 L37.3552,0.5856 C38.3472,0.5856 39.1552,1.3936 39.1552,2.3856 Z" id="Path"></path>
                    </g>
                    <path d="M6.1584,22.372 L12.2152,22.372 C12.8464,22.372 13.36,21.8584 13.36,21.2272 L13.36,17.4424 C13.36,16.8112 12.8464,16.2976 12.2152,16.2976 L6.1584,16.2976 C5.5272,16.2976 5.0136,16.8112 5.0136,17.4424 L5.0136,21.2272 C5.0136,21.8592 5.5272,22.372 6.1584,22.372 Z M12.1608,17.4984 L12.2152,21.1728 L6.2136,21.228 L6.1584,17.4984 L12.1608,17.4984 Z" id="Shape" fill="#000000"></path>
                    <path d="M19.588,17.856 L36.1248,17.856 C36.456,17.856 36.7248,17.5872 36.7248,17.256 C36.7248,16.9248 36.456,16.656 36.1248,16.656 L19.588,16.656 C19.2568,16.656 18.988,16.9248 18.988,17.256 C18.988,17.5872 19.2568,17.856 19.588,17.856 Z" id="Path" fill="#000000"></path>
                    <path d="M19.588,21.2192 L29.2664,21.2192 C29.5976,21.2192 29.8664,20.9504 29.8664,20.6192 C29.8664,20.288 29.5976,20.0192 29.2664,20.0192 L19.588,20.0192 C19.2568,20.0192 18.988,20.288 18.988,20.6192 C18.988,20.9504 19.2568,21.2192 19.588,21.2192 Z" id="Path" fill="#000000"></path>
                </g>
                <g id="Group" transform="translate(56.000000, 1.600000)" fill="#000000">
                    <path d="M0.0224,23.1904 L0.0224,0.776 L11.0456,0.776 C15.1456,0.776 17.4296,3.3296 17.4296,6.4888 C17.4296,9.312 15.6152,11.1936 13.5312,11.6312 C15.9168,12.0008 17.8672,14.3864 17.8672,17.1424 C17.8672,20.604 15.5488,23.192 11.3472,23.192 L0.0224,23.192 L0.0224,23.1904 Z M13.3976,7.1608 C13.3976,5.48 12.2552,4.2368 10.24,4.2368 L3.956,4.2368 L3.956,10.0512 L10.24,10.0512 C12.2552,10.0504 13.3976,8.8416 13.3976,7.1608 Z M13.8344,16.604 C13.8344,14.9232 12.6576,13.5128 10.4064,13.5128 L3.9552,13.5128 L3.9552,19.7296 L10.4064,19.7296 C12.5584,19.7288 13.8344,18.5528 13.8344,16.604 Z" id="Shape"></path>
                    <path d="M34.9344,23.1904 L29.9608,14.8224 L26.0624,14.8224 L26.0624,23.1904 L22.1312,23.1904 L22.1312,0.776 L31.9784,0.776 C36.4144,0.776 39.3032,3.6656 39.3032,7.7992 C39.3032,11.7984 36.6832,13.9496 33.9936,14.3856 L39.472,23.1904 L34.9344,23.1904 Z M35.2704,7.7992 C35.2704,5.6488 33.6576,4.2368 31.4392,4.2368 L26.0624,4.2368 L26.0624,11.3608 L31.4392,11.3608 C33.6584,11.3608 35.2704,9.9504 35.2704,7.7992 Z" id="Shape"></path>
                    <polygon id="Path" points="43.568 23.1904 43.568 0.776 47.5008 0.776 47.5008 23.1912 43.568 23.1912"></polygon>
                    <path d="M51.5976,12 C51.5976,5.1112 56.74,0.4064 63.36,0.4064 C67.896,0.4064 70.6864,2.7584 72.3664,5.4472 L69.0056,7.1616 C67.9304,5.3128 65.7792,3.9016 63.36,3.9016 C58.924,3.9016 55.6304,7.296 55.6304,12.0008 C55.6304,16.7056 58.924,20.1 63.36,20.1 C65.7784,20.1 67.9304,18.7216 69.0056,16.84 L72.3664,18.5544 C70.652,21.2424 67.896,23.5952 63.36,23.5952 C56.7392,23.5936 51.5976,18.8888 51.5976,12 Z" id="Path"></path>
                    <polygon id="Path" points="89.2664 23.1904 81.7384 13.7472 79.7896 16.032 79.7896 23.1896 75.8568 23.1896 75.8568 0.776 79.7896 0.776 79.7896 11.4624 88.56 0.776 93.4336 0.776 84.3256 11.3608 94.1056 23.1904"></polygon>
                </g>
            </g>
        </g>
    </g>
</svg>