<?xml version="1.0" encoding="UTF-8"?>
<svg width="264px" height="45px" viewBox="0 0 264 45" version="1.1" xmlns="http://www.w3.org/2000/svg" xmlns:xlink="http://www.w3.org/1999/xlink">
    <title>Passport.kyc</title>
    <g id="Landings" stroke="none" stroke-width="1" fill="none" fill-rule="evenodd">
        <g id="Product-logos" transform="translate(-83.000000, -213.000000)" fill-rule="nonzero">
            <g id="Passport.kyc" transform="translate(83.000000, 213.000000)">
                <g id="Group" transform="translate(65.974400, 9.504000)" fill="#000000">
                    <path d="M0.8800704,27.324 L0.8800704,0.693792 L12.578544,0.693792 C18.1678464,0.693792 21.2813568,4.5267552 21.2813568,9.0373536 C21.2813568,13.5498528 18.1279296,17.3809152 12.578544,17.3809152 L5.5512864,17.3809152 L5.5512864,27.324 L0.8800704,27.324 Z M16.4903904,9.038304 C16.4903904,6.4836288 14.5734336,4.8061728 11.9389248,4.8061728 L5.5512864,4.8061728 L5.5512864,13.2704352 L11.9389248,13.2704352 C14.574384,13.2704352 16.4903904,11.59488 16.4903904,9.038304 Z" id="Shape"></path>
                    <path d="M41.1988896,27.324 L39.2429664,22.2136992 L27.0265248,22.2136992 L25.0696512,27.324 L19.7597664,27.324 L30.2198688,0.693792 L36.048672,0.693792 L46.5087744,27.324 L41.1988896,27.324 Z M33.1347456,5.4058752 L28.3437792,18.100368 L37.925712,18.100368 L33.1347456,5.4058752 Z" id="Shape"></path>
                    <path d="M47.7015264,23.5708704 L50.2961184,19.977408 C52.1332416,21.9342816 55.0072512,23.650704 58.720464,23.650704 C62.5524768,23.650704 64.0702656,21.773664 64.0702656,20.0182752 C64.0702656,17.6223168 61.2361728,16.9038144 58.0010112,16.066512 C53.65008,14.987808 48.5397792,13.7104704 48.5397792,8.0812512 C48.5397792,3.6894528 52.4117088,0.2965248 58.2414624,0.2965248 C62.3928096,0.2965248 65.7458208,1.6147296 68.2216128,4.0087872 L65.5471872,7.4815488 C63.4715136,5.4058752 60.6364704,4.4488224 57.8422944,4.4488224 C55.0880352,4.4488224 53.331696,5.7660768 53.331696,7.7619168 C53.331696,9.8375904 56.0460384,10.516176 59.200416,11.314512 C63.5922144,12.4321824 68.8222656,13.790304 68.8222656,19.57824 C68.8222656,24.0109056 65.7078048,27.8030016 58.5218304,27.8030016 C53.6111136,27.8030016 50.0566176,26.0865792 47.7015264,23.5708704 Z" id="Path"></path>
                    <path d="M71.8103232,23.5708704 L74.4049152,19.977408 C76.2420384,21.9342816 79.116048,23.650704 82.8292608,23.650704 C86.6612736,23.650704 88.1790624,21.773664 88.1790624,20.0182752 C88.1790624,17.6223168 85.3449696,16.9038144 82.109808,16.066512 C77.7588768,14.987808 72.648576,13.7104704 72.648576,8.0812512 C72.648576,3.6894528 76.5205056,0.2965248 82.3502592,0.2965248 C86.5016064,0.2965248 89.8546176,1.6147296 92.3304096,4.0087872 L89.655984,7.4815488 C87.5803104,5.4058752 84.7452672,4.4488224 81.9510912,4.4488224 C79.196832,4.4488224 77.4404928,5.7660768 77.4404928,7.7619168 C77.4404928,9.8375904 80.1548352,10.516176 83.3092128,11.314512 C87.7010112,12.4321824 92.9310624,13.790304 92.9310624,19.57824 C92.9310624,24.0109056 89.8166016,27.8030016 82.6306272,27.8030016 C77.7199104,27.8030016 74.1663648,26.0865792 71.8103232,23.5708704 Z" id="Path"></path>
                    <path d="M97.6364928,27.324 L97.6364928,0.693792 L109.334966,0.693792 C114.924269,0.693792 118.037779,4.5267552 118.037779,9.0373536 C118.037779,13.5498528 114.884352,17.3809152 109.334966,17.3809152 L102.307709,17.3809152 L102.307709,27.324 L97.6364928,27.324 Z M113.246813,9.038304 C113.246813,6.4836288 111.329856,4.8061728 108.695347,4.8061728 L102.307709,4.8061728 L102.307709,13.2704352 L108.695347,13.2704352 C111.329856,13.2704352 113.246813,11.59488 113.246813,9.038304 Z" id="Shape"></path>
                    <path d="M121.106621,14.0298048 C121.106621,6.0844608 126.73584,0.2556576 134.72015,0.2556576 C142.704461,0.2556576 148.33368,6.0844608 148.33368,14.0298048 C148.33368,21.9741984 142.704461,27.8030016 134.72015,27.8030016 C126.73584,27.8030016 121.106621,21.9751488 121.106621,14.0298048 Z M143.543664,14.0298048 C143.543664,8.5193856 140.070902,4.4070048 134.721101,4.4070048 C129.331382,4.4070048 125.898538,8.5193856 125.898538,14.0298048 C125.898538,19.4984064 129.331382,23.650704 134.721101,23.650704 C140.069952,23.650704 143.543664,19.4984064 143.543664,14.0298048 Z" id="Shape"></path>
                    <path d="M168.450797,27.324 L162.54216,17.3818656 L157.910861,17.3818656 L157.910861,27.324 L153.239645,27.324 L153.239645,0.693792 L164.938118,0.693792 C170.208086,0.693792 173.640931,4.1275872 173.640931,9.0373536 C173.640931,13.7893536 170.527421,16.3440288 167.333126,16.8629472 L173.840515,27.3230496 L168.450797,27.3230496 L168.450797,27.324 Z M168.849965,9.038304 C168.849965,6.4836288 166.933008,4.8061728 164.298499,4.8061728 L157.910861,4.8061728 L157.910861,13.2704352 L164.298499,13.2704352 C166.933008,13.2704352 168.849965,11.59488 168.849965,9.038304 Z" id="Shape"></path>
                    <polygon id="Path" points="184.656067 27.324 184.656067 4.8061728 176.590973 4.8061728 176.590973 0.6947424 197.392378 0.6947424 197.392378 4.8061728 189.327283 4.8061728 189.327283 27.324"></polygon>
                </g>
                <g id="Group">
                    <path d="M40.6619136,31.4686944 C40.6847232,31.429728 42.9941952,27.5368896 43.2108864,22.7772864 C43.4541888,17.41608 41.6151648,12.3998688 38.0340576,8.653392 C34.1887392,4.6293984 28.6079904,2.3218272 22.7231136,2.3218272 C11.4247584,2.3218272 2.23344,11.5131456 2.23344,22.8096 C2.23344,34.181136 11.0417472,42.7556448 22.7221632,42.7556448 C28.4141088,42.7556448 32.6357856,39.8436192 32.6776032,39.8132064 C32.8306176,39.7048608 33.0178464,39.6630432 33.2079264,39.6944064 L43.1424576,41.4051264 L40.5858816,32.0227776 C40.5336096,31.8364992 40.5611712,31.6350144 40.6619136,31.4686944 Z M22.7221632,38.1471552 C14.265504,38.1471552 7.3836576,31.2672096 7.3836576,22.8096 C7.3836576,14.3519904 14.2645536,7.4710944 22.7221632,7.4710944 C31.1797728,7.4710944 38.058768,14.3529408 38.058768,22.8096 C38.058768,31.2662592 31.1788224,38.1471552 22.7221632,38.1471552 Z" id="Shape" fill="#F9BD17"></path>
                    <path d="M44.81136,42.1112736 L42.0380928,31.93344 C42.5931264,30.9269664 44.4331008,27.2869344 44.6336352,22.842864 C44.8940448,17.088192 42.9162624,11.699424 39.0642912,7.6678272 C34.95096,3.364416 28.9948032,0.8962272 22.7221632,0.8962272 C10.6387776,0.8962272 0.80784,10.7271648 0.80784,22.8096 C0.80784,34.993728 10.2291552,44.1812448 22.7221632,44.1812448 C28.1147328,44.1812448 32.2052544,41.8118976 33.2440416,41.1485184 L44.0025696,43.000848 C44.2401696,43.0417152 44.488224,42.95808 44.6507424,42.7784544 C44.8151616,42.5978784 44.8750368,42.3460224 44.81136,42.1112736 Z M33.206976,39.6953568 C33.0178464,39.6639936 32.8306176,39.7058112 32.6766528,39.8141568 C32.6348352,39.8436192 28.4141088,42.7565952 22.7212128,42.7565952 C11.0407968,42.7565952 2.2324896,34.1820864 2.2324896,22.8105504 C2.2324896,11.5131456 11.423808,2.3218272 22.7212128,2.3218272 C28.6060896,2.3218272 34.1868384,4.6293984 38.0321568,8.653392 C41.6142144,12.3998688 43.452288,17.4170304 43.2089856,22.7772864 C42.9922944,27.5368896 40.6837728,31.429728 40.6600128,31.4686944 C40.5602208,31.6350144 40.5317088,31.8364992 40.5830304,32.023728 L43.1396064,41.4060768 L33.206976,39.6953568 Z" id="Shape" fill="#000000"></path>
                    <path d="M22.7221632,8.8976448 C15.0505344,8.8976448 8.8092576,15.1379712 8.8092576,22.8105504 C8.8092576,30.4812288 15.049584,36.7225056 22.7221632,36.7225056 C30.3928416,36.7225056 36.6341184,30.4821792 36.6341184,22.8105504 C36.633168,15.1379712 30.3928416,8.8976448 22.7221632,8.8976448 Z M22.7221632,30.4726752 C18.4966848,30.4726752 15.059088,27.0350784 15.059088,22.8096 C15.059088,18.5841216 18.4966848,15.1465248 22.7221632,15.1465248 C26.9466912,15.1465248 30.384288,18.5841216 30.384288,22.8096 C30.384288,27.0350784 26.9466912,30.4726752 22.7221632,30.4726752 Z" id="Shape" fill="#F9BD17"></path>
                    <path d="M22.7221632,7.4720448 C14.265504,7.4720448 7.3836576,14.3529408 7.3836576,22.8105504 C7.3836576,31.26816 14.2645536,38.1481056 22.7221632,38.1481056 C31.1797728,38.1481056 38.058768,31.2672096 38.058768,22.8096 C38.058768,14.3519904 31.1788224,7.4720448 22.7221632,7.4720448 Z M22.7221632,36.7215552 C15.0505344,36.7215552 8.8092576,30.4812288 8.8092576,22.8096 C8.8092576,15.1379712 15.049584,8.8966944 22.7221632,8.8966944 C30.3928416,8.8966944 36.6341184,15.1370208 36.6341184,22.8096 C36.633168,30.4812288 30.3928416,36.7215552 22.7221632,36.7215552 Z" id="Shape" fill="#000000"></path>
                    <path d="M22.7221632,16.5721248 C19.2826656,16.5721248 16.484688,19.3701024 16.484688,22.8096 C16.484688,26.2481472 19.2826656,29.0470752 22.7221632,29.0470752 C26.1607104,29.0470752 28.958688,26.2490976 28.958688,22.8096 C28.958688,19.3701024 26.1607104,16.5721248 22.7221632,16.5721248 Z" id="Path" fill="#F9BD17"></path>
                    <path d="M22.7221632,15.1465248 C18.4966848,15.1465248 15.059088,18.5841216 15.059088,22.8096 C15.059088,27.034128 18.4966848,30.4726752 22.7221632,30.4726752 C26.9466912,30.4726752 30.384288,27.0350784 30.384288,22.8096 C30.384288,18.5841216 26.9466912,15.1465248 22.7221632,15.1465248 Z M22.7221632,29.0470752 C19.2826656,29.0470752 16.484688,26.2490976 16.484688,22.8096 C16.484688,19.3701024 19.2826656,16.5721248 22.7221632,16.5721248 C26.1607104,16.5721248 28.958688,19.3701024 28.958688,22.8096 C28.958688,26.2490976 26.1607104,29.0470752 22.7221632,29.0470752 Z" id="Shape" fill="#000000"></path>
                </g>
            </g>
        </g>
    </g>
</svg>