<?xml version="1.0" encoding="UTF-8"?>
<svg width="236px" height="44px" viewBox="0 0 236 44" version="1.1" xmlns="http://www.w3.org/2000/svg" xmlns:xlink="http://www.w3.org/1999/xlink">
    <title>PAYALTO</title>
    <g id="Landings" stroke="none" stroke-width="1" fill="none" fill-rule="evenodd">
        <g id="PAYALTO" fill-rule="nonzero">
            <g id="Group" transform="translate(65.000000, 7.000000)" fill="#000000">
                <path d="M0.028,28.988 L0.028,0.97 L12.337,0.97 C18.218,0.97 21.494,5.002 21.494,9.749 C21.494,14.496 18.176,18.528 12.337,18.528 L4.943,18.528 L4.943,28.988 L0.028,28.988 L0.028,28.988 Z M16.453,9.749 C16.453,7.061 14.436,5.296 11.664,5.296 L4.943,5.296 L4.943,14.202 L11.664,14.202 C14.436,14.202 16.453,12.438 16.453,9.749 Z" id="Shape"></path>
                <path d="M42.451,28.988 L40.393,23.611 L27.539,23.611 L25.48,28.988 L19.893,28.988 L30.899,0.969 L37.032,0.969 L48.038,28.988 L42.451,28.988 Z M33.965,5.927 L28.924,19.285 L39.006,19.285 L33.965,5.927 Z" id="Shape"></path>
                <polygon id="Path" points="56.729 28.988 56.729 17.353 45.849 0.97 51.478 0.97 59.207 12.984 66.853 0.97 72.482 0.97 61.644 17.353 61.644 28.989"></polygon>
                <path d="M92.851,28.988 L90.793,23.611 L77.939,23.611 L75.88,28.988 L70.293,28.988 L81.299,0.969 L87.432,0.969 L98.438,28.988 L92.851,28.988 Z M84.366,5.927 L79.325,19.285 L89.407,19.285 L84.366,5.927 Z" id="Shape"></path>
                <polygon id="Path" points="101.919 28.988 101.919 0.97 106.834 0.97 106.834 24.662 119.185 24.662 119.185 28.988"></polygon>
                <polygon id="Path" points="126.534 28.988 126.534 5.296 118.048 5.296 118.048 0.97 139.935 0.97 139.935 5.296 131.449 5.296 131.449 28.988"></polygon>
                <path d="M142.198,15 C142.198,6.641 148.121,0.508 156.522,0.508 C164.923,0.508 170.846,6.641 170.846,15 C170.846,23.359 164.923,29.492 156.522,29.492 C148.121,29.492 142.198,23.359 142.198,15 Z M165.805,15 C165.805,9.203 162.151,4.876 156.522,4.876 C150.851,4.876 147.239,9.203 147.239,15 C147.239,20.755 150.851,25.124 156.522,25.124 C162.151,25.124 165.805,20.755 165.805,15 Z" id="Shape"></path>
            </g>
            <g id="Group">
                <g>
                    <circle id="Oval" fill="#F9BD17" cx="21.75" cy="22" r="20.931"></circle>
                    <path d="M21.75,43.681 C9.795,43.681 0.069,33.955 0.069,22 C0.069,10.045 9.795,0.319 21.75,0.319 C33.705,0.319 43.431,10.045 43.431,22 C43.431,33.955 33.705,43.681 21.75,43.681 Z M21.75,1.819 C10.622,1.819 1.569,10.872 1.569,22 C1.569,33.128 10.622,42.181 21.75,42.181 C32.878,42.181 41.931,33.128 41.931,22 C41.931,10.872 32.878,1.819 21.75,1.819 Z" id="Shape" fill="#000000"></path>
                </g>
                <g transform="translate(1.000000, 0.000000)" fill="#000000" id="Path">
                    <path d="M40.643,16.224 L0.858,16.224 C0.444,16.224 0.108,15.888 0.108,15.474 C0.108,15.06 0.444,14.724 0.858,14.724 L40.643,14.724 C41.057,14.724 41.393,15.06 41.393,15.474 C41.393,15.888 41.057,16.224 40.643,16.224 Z"></path>
                    <path d="M40.313,30.209 L1.188,30.209 C0.774,30.209 0.438,29.873 0.438,29.459 C0.438,29.045 0.774,28.709 1.188,28.709 L40.313,28.709 C40.727,28.709 41.063,29.045 41.063,29.459 C41.063,29.873 40.727,30.209 40.313,30.209 Z"></path>
                    <path d="M21.242,43.681 C15.877,43.681 11.674,34.158 11.674,22 C11.674,9.842 15.877,0.319 21.242,0.319 C21.656,0.319 21.992,0.655 21.992,1.069 C21.992,1.483 21.656,1.819 21.242,1.819 C16.868,1.819 13.174,11.061 13.174,22 C13.174,32.939 16.869,42.181 21.242,42.181 C21.656,42.181 21.992,42.517 21.992,42.931 C21.992,43.345 21.656,43.681 21.242,43.681 Z"></path>
                    <path d="M21.242,43.681 C20.828,43.681 20.492,43.345 20.492,42.931 C20.492,42.517 20.828,42.181 21.242,42.181 C25.513,42.181 29.12,32.94 29.12,22 C29.12,11.06 25.513,1.819 21.242,1.819 C20.828,1.819 20.492,1.483 20.492,1.069 C20.492,0.655 20.828,0.319 21.242,0.319 C26.501,0.319 30.62,9.842 30.62,22 C30.62,34.157 26.501,43.681 21.242,43.681 Z"></path>
                </g>
            </g>
        </g>
    </g>
</svg>