<?xml version="1.0" encoding="UTF-8"?>
<svg width="388px" height="48px" viewBox="0 0 388 48" version="1.1" xmlns="http://www.w3.org/2000/svg" xmlns:xlink="http://www.w3.org/1999/xlink">
    <title>subscription-07(1)</title>
    <g id="Landings" stroke="none" stroke-width="1" fill="none" fill-rule="evenodd">
        <g id="Product-logos" transform="translate(-82.000000, -382.000000)" fill-rule="nonzero">
            <g id="subscription-07(1)" transform="translate(82.000000, 382.000000)">
                <g id="Group" transform="translate(64.000000, 9.000000)" fill="#000000">
                    <path d="M0.204,25.04 L2.934,21.26 C4.868,23.319 7.891,25.124 11.799,25.124 C15.83,25.124 17.428,23.15 17.428,21.301 C17.428,18.781 14.446,18.026 11.041,17.143 C6.463,16.008 1.086,14.664 1.086,8.742 C1.086,4.121 5.16,0.551 11.295,0.551 C15.662,0.551 19.191,1.937 21.795,4.458 L18.981,8.112 C16.797,5.927 13.815,4.919 10.874,4.919 C7.976,4.919 6.128,6.306 6.128,8.406 C6.128,10.591 8.985,11.304 12.304,12.144 C16.925,13.321 22.427,14.748 22.427,20.84 C22.427,25.502 19.15,29.492 11.589,29.492 C6.422,29.492 2.682,27.687 0.204,25.04 Z" id="Path"></path>
                    <path d="M27.379,17.942 L27.379,0.97 L32.336,0.97 L32.336,17.774 C32.336,22.226 34.815,25.125 39.52,25.125 C44.182,25.125 46.661,22.227 46.661,17.774 L46.661,0.97 L51.618,0.97 L51.618,17.899 C51.618,24.873 47.628,29.493 39.52,29.493 C31.37,29.492 27.379,24.83 27.379,17.942 Z" id="Path"></path>
                    <path d="M57.997,28.988 L57.997,0.97 L71.774,0.97 C76.899,0.97 79.756,4.162 79.756,8.112 C79.756,11.64 77.486,13.993 74.883,14.539 C77.865,15.001 80.301,17.983 80.301,21.429 C80.301,25.755 77.403,28.99 72.153,28.99 L57.997,28.99 L57.997,28.988 Z M74.715,8.951 C74.715,6.851 73.287,5.297 70.766,5.297 L62.911,5.297 L62.911,12.565 L70.766,12.565 C73.288,12.565 74.715,11.052 74.715,8.951 Z M75.262,20.756 C75.262,18.654 73.791,16.891 70.977,16.891 L62.911,16.891 L62.911,24.662 L70.977,24.662 C73.665,24.662 75.262,23.192 75.262,20.756 Z" id="Shape"></path>
                    <path d="M83.825,25.04 L86.555,21.26 C88.489,23.319 91.512,25.124 95.42,25.124 C99.451,25.124 101.049,23.15 101.049,21.301 C101.049,18.781 98.067,18.026 94.662,17.143 C90.084,16.008 84.707,14.664 84.707,8.742 C84.707,4.121 88.781,0.551 94.916,0.551 C99.283,0.551 102.812,1.937 105.416,4.458 L102.602,8.112 C100.418,5.927 97.436,4.919 94.495,4.919 C91.597,4.919 89.749,6.306 89.749,8.406 C89.749,10.591 92.606,11.304 95.925,12.144 C100.546,13.321 106.048,14.748 106.048,20.84 C106.048,25.502 102.771,29.492 95.21,29.492 C90.044,29.492 86.303,27.687 83.825,25.04 Z" id="Path"></path>
                    <path d="M109.741,15 C109.741,6.389 116.167,0.508 124.442,0.508 C130.114,0.508 133.6,3.448 135.7,6.809 L131.501,8.952 C130.155,6.641 127.468,4.878 124.442,4.878 C118.897,4.878 114.782,9.12 114.782,15.001 C114.782,20.882 118.897,25.125 124.442,25.125 C127.467,25.125 130.155,23.403 131.501,21.05 L135.7,23.193 C133.559,26.554 130.114,29.494 124.442,29.494 C116.167,29.492 109.741,23.611 109.741,15 Z" id="Path"></path>
                    <path d="M156.069,28.988 L149.852,18.529 L144.979,18.529 L144.979,28.988 L140.063,28.988 L140.063,0.97 L152.372,0.97 C157.917,0.97 161.53,4.582 161.53,9.75 C161.53,14.748 158.253,17.437 154.893,17.982 L161.739,28.988 L156.069,28.988 Z M156.489,9.75 C156.489,7.061 154.471,5.297 151.7,5.297 L144.979,5.297 L144.979,14.202 L151.7,14.202 C154.471,14.202 156.489,12.438 156.489,9.75 Z" id="Shape"></path>
                    <polygon id="Path" points="166.86 28.988 166.86 0.97 171.774 0.97 171.774 28.989 166.86 28.989"></polygon>
                    <path d="M178.157,28.988 L178.157,0.97 L190.466,0.97 C196.347,0.97 199.622,5.002 199.622,9.75 C199.622,14.496 196.304,18.529 190.466,18.529 L183.071,18.529 L183.071,28.988 L178.157,28.988 Z M194.581,9.75 C194.581,7.061 192.565,5.297 189.792,5.297 L183.071,5.297 L183.071,14.202 L189.792,14.202 C192.565,14.202 194.581,12.438 194.581,9.75 Z" id="Shape"></path>
                    <polygon id="Path" points="210.792 28.988 210.792 5.297 202.306 5.297 202.306 0.97 224.193 0.97 224.193 5.297 215.707 5.297 215.707 28.988"></polygon>
                    <polygon id="Path" points="228.766 28.988 228.766 0.97 233.68 0.97 233.68 28.989 228.766 28.989"></polygon>
                    <path d="M238.803,15 C238.803,6.641 244.727,0.508 253.127,0.508 C261.529,0.508 267.451,6.641 267.451,15 C267.451,23.359 261.529,29.492 253.127,29.492 C244.727,29.492 238.803,23.36 238.803,15 Z M262.411,15 C262.411,9.203 258.757,4.877 253.128,4.877 C247.458,4.877 243.845,9.203 243.845,15 C243.845,20.756 247.458,25.124 253.128,25.124 C258.756,25.124 262.411,20.756 262.411,15 Z" id="Shape"></path>
                    <polygon id="Path" points="292.147 28.988 277.528 8.993 277.528 28.988 272.614 28.988 272.614 0.97 277.655 0.97 291.979 20.42 291.979 0.97 296.893 0.97 296.893 28.989 292.147 28.989"></polygon>
                    <path d="M301.465,25.04 L304.195,21.26 C306.129,23.319 309.152,25.124 313.06,25.124 C317.091,25.124 318.689,23.15 318.689,21.301 C318.689,18.781 315.707,18.026 312.302,17.143 C307.724,16.008 302.347,14.664 302.347,8.742 C302.347,4.121 306.421,0.551 312.556,0.551 C316.923,0.551 320.452,1.937 323.056,4.458 L320.242,8.112 C318.058,5.927 315.076,4.919 312.135,4.919 C309.237,4.919 307.389,6.306 307.389,8.406 C307.389,10.591 310.246,11.304 313.565,12.144 C318.186,13.321 323.688,14.748 323.688,20.84 C323.688,25.502 320.411,29.492 312.85,29.492 C307.684,29.492 303.944,27.687 301.465,25.04 Z" id="Path"></path>
                </g>
                <g id="Group">
                    <g>
                        <circle id="Oval" fill="#F9BD17" cx="23.75" cy="24" r="22.307"></circle>
                        <path d="M23.751,47.057 C11.037,47.057 0.694,36.714 0.694,24 C0.694,11.286 11.037,0.943 23.751,0.943 C36.465,0.943 46.807,11.286 46.807,24 C46.807,36.714 36.464,47.057 23.751,47.057 Z M23.751,2.443 C11.864,2.443 2.194,12.113 2.194,24 C2.194,35.887 11.864,45.557 23.751,45.557 C35.638,45.557 45.307,35.887 45.307,24 C45.307,12.113 35.637,2.443 23.751,2.443 Z" id="Shape" fill="#000000"></path>
                    </g>
                    <g transform="translate(8.000000, 9.000000)" fill="#000000" id="Path">
                        <path d="M1.869,16.997 C1.402,16.997 1.01,16.634 0.98,16.161 C0.694,11.603 1.978,7.667 4.693,4.776 C7.436,1.856 11.487,0.248 16.098,0.248 C21.187,0.248 25.998,2.472 29.298,6.35 C29.617,6.725 29.572,7.288 29.197,7.607 C28.823,7.925 28.259,7.882 27.94,7.506 C24.979,4.027 20.663,2.031 16.097,2.031 C11.983,2.031 8.394,3.439 5.992,5.997 C3.623,8.519 2.505,11.996 2.759,16.05 C2.79,16.541 2.416,16.965 1.925,16.995 C1.907,16.996 1.887,16.997 1.869,16.997 Z"></path>
                        <path d="M15.361,29.751 C10.518,29.751 5.862,27.703 2.587,24.133 C2.254,23.771 2.278,23.206 2.642,22.873 C3.004,22.542 3.569,22.565 3.902,22.928 C6.84,26.131 11.017,27.968 15.362,27.968 C19.396,27.968 23.161,26.361 25.69,23.557 C28.038,20.955 29.08,17.646 28.704,13.986 C28.653,13.497 29.01,13.058 29.5,13.008 C29.988,12.97 30.429,13.314 30.478,13.804 C30.902,17.92 29.671,21.808 27.014,24.752 C24.145,27.929 19.899,29.751 15.361,29.751 Z"></path>
                        <path d="M3.667,28.649 C3.252,28.649 2.88,28.358 2.794,27.935 L1.94,23.731 C1.842,23.249 2.154,22.778 2.636,22.679 L6.839,21.825 C7.318,21.733 7.793,22.039 7.891,22.521 C7.989,23.003 7.677,23.474 7.195,23.573 L3.865,24.25 L4.543,27.58 C4.641,28.062 4.329,28.533 3.847,28.632 C3.785,28.643 3.725,28.649 3.667,28.649 Z"></path>
                        <path d="M28.704,7.821 C28.7,7.821 28.696,7.821 28.692,7.821 L24.404,7.762 C23.911,7.755 23.517,7.351 23.524,6.859 C23.531,6.367 23.928,5.975 24.427,5.979 L27.824,6.026 L27.871,2.629 C27.878,2.142 28.275,1.75 28.763,1.75 C28.767,1.75 28.771,1.75 28.776,1.75 C29.268,1.757 29.662,2.162 29.655,2.654 L29.595,6.942 C29.588,7.43 29.191,7.821 28.704,7.821 Z"></path>
                    </g>
                </g>
            </g>
        </g>
    </g>
</svg>