<?xml version="1.0" encoding="UTF-8"?>
<svg width="295px" height="43px" viewBox="0 0 295 43" version="1.1" xmlns="http://www.w3.org/2000/svg" xmlns:xlink="http://www.w3.org/1999/xlink">
    <title>ELNVOICING</title>
    <g id="Landings" stroke="none" stroke-width="1" fill="none" fill-rule="evenodd">
        <g id="ELNVOICING" fill-rule="nonzero">
            <g id="Group" transform="translate(59.000000, 6.000000)" fill="#000000">
                <polygon id="Path" points="0.944 29.229 0.944 1.21 20.141 1.21 20.141 5.536 5.859 5.536 5.859 12.804 19.847 12.804 19.847 17.131 5.859 17.131 5.859 24.902 20.141 24.902 20.141 29.229"></polygon>
                <polygon id="Path" points="25.598 29.229 25.598 1.21 30.513 1.21 30.513 29.229"></polygon>
                <polygon id="Path" points="56.265 29.229 41.647 9.233 41.647 29.229 36.732 29.229 36.732 1.21 41.773 1.21 56.097 20.659 56.097 1.21 61.012 1.21 61.012 29.23 56.265 29.23"></polygon>
                <polygon id="Path" points="75.457 29.229 64.451 1.209 70.038 1.209 78.523 23.893 87.008 1.209 92.595 1.209 81.589 29.229"></polygon>
                <path d="M93.977,15.241 C93.977,6.881 99.9,0.748 108.301,0.748 C116.702,0.748 122.625,6.881 122.625,15.241 C122.625,23.6 116.702,29.733 108.301,29.733 C99.9,29.733 93.977,23.6 93.977,15.241 Z M117.585,15.241 C117.585,9.443 113.931,5.116 108.302,5.116 C102.631,5.116 99.019,9.443 99.019,15.241 C99.019,20.995 102.631,25.364 108.302,25.364 C113.93,25.364 117.585,20.995 117.585,15.241 Z" id="Shape"></path>
                <polygon id="Path" points="127.787 29.229 127.787 1.21 132.702 1.21 132.702 29.23 127.787 29.23"></polygon>
                <path d="M137.825,15.241 C137.825,6.629 144.252,0.748 152.527,0.748 C158.198,0.748 161.685,3.688 163.785,7.049 L159.585,9.192 C158.24,6.881 155.552,5.117 152.527,5.117 C146.982,5.117 142.866,9.36 142.866,15.242 C142.866,21.123 146.982,25.365 152.527,25.365 C155.551,25.365 158.24,23.642 159.585,21.291 L163.785,23.434 C161.642,26.793 158.198,29.735 152.527,29.735 C144.252,29.733 137.825,23.852 137.825,15.241 Z" id="Path"></path>
                <polygon id="Path" points="168.148 29.229 168.148 1.21 173.063 1.21 173.063 29.23 168.148 29.23"></polygon>
                <polygon id="Path" points="198.979 29.229 184.361 9.233 184.361 29.229 179.446 29.229 179.446 1.21 184.487 1.21 198.811 20.659 198.811 1.21 203.726 1.21 203.726 29.23 198.979 29.23"></polygon>
                <path d="M208.845,15.241 C208.845,6.461 215.44,0.748 223.547,0.748 C229.008,0.748 232.578,3.352 234.847,6.587 L230.815,8.856 C229.344,6.755 226.698,5.117 223.547,5.117 C218.002,5.117 213.886,9.36 213.886,15.242 C213.886,21.123 218.002,25.407 223.547,25.407 C226.403,25.407 228.924,24.062 230.185,22.886 L230.185,18.517 L221.825,18.517 L221.825,14.19 L235.099,14.19 L235.099,24.692 C232.327,27.758 228.42,29.774 223.547,29.774 C215.44,29.774 208.845,24.02 208.845,15.241 Z" id="Path"></path>
            </g>
            <g id="Group">
                <path d="M34.46,38.206 C34.46,39.859 35.805,41.205 37.458,41.205 C39.111,41.205 40.456,39.859 40.456,38.206 L40.456,24.852 L34.46,24.852 L34.46,38.206 Z" id="Path" fill="#F9BD17"></path>
                <path d="M6.501,41.205 L33.737,41.205 C33.075,40.385 32.677,39.341 32.677,38.206 L32.677,2.221 L2.263,2.221 L2.263,36.968 C2.263,39.305 4.164,41.205 6.501,41.205 Z M14.526,11.472 L28.464,11.472 C28.956,11.472 29.356,11.871 29.356,12.364 C29.356,12.857 28.957,13.256 28.464,13.256 L14.526,13.256 C14.034,13.256 13.634,12.857 13.634,12.364 C13.634,11.871 14.034,11.472 14.526,11.472 Z M14.526,20.934 L28.464,20.934 C28.956,20.934 29.356,21.333 29.356,21.826 C29.356,22.319 28.957,22.718 28.464,22.718 L14.526,22.718 C14.034,22.718 13.634,22.319 13.634,21.826 C13.634,21.333 14.034,20.934 14.526,20.934 Z M14.526,30.398 L28.464,30.398 C28.956,30.398 29.356,30.797 29.356,31.29 C29.356,31.783 28.957,32.182 28.464,32.182 L14.526,32.182 C14.034,32.182 13.634,31.783 13.634,31.29 C13.634,30.797 14.034,30.398 14.526,30.398 Z M6.505,11.169 C6.505,10.698 6.887,10.317 7.357,10.317 L9.745,10.317 C10.215,10.317 10.597,10.698 10.597,11.169 L10.597,13.557 C10.597,14.027 10.216,14.409 9.745,14.409 L7.357,14.409 C6.887,14.409 6.505,14.027 6.505,13.557 L6.505,11.169 Z M6.505,20.632 C6.505,20.162 6.887,19.78 7.357,19.78 L9.745,19.78 C10.215,19.78 10.597,20.161 10.597,20.632 L10.597,23.02 C10.597,23.49 10.216,23.872 9.745,23.872 L7.357,23.872 C6.887,23.872 6.505,23.491 6.505,23.02 L6.505,20.632 Z M6.505,30.096 C6.505,29.626 6.887,29.244 7.357,29.244 L9.745,29.244 C10.215,29.244 10.597,29.625 10.597,30.096 L10.597,32.484 C10.597,32.955 10.216,33.336 9.745,33.336 L7.357,33.336 C6.887,33.336 6.505,32.955 6.505,32.484 L6.505,30.096 Z" id="Shape" fill="#F9BD17"></path>
                <path d="M41.348,23.069 L34.46,23.069 L34.46,1.329 C34.46,0.837 34.061,0.437 33.568,0.437 L1.372,0.437 C0.88,0.437 0.48,0.836 0.48,1.329 L0.48,36.968 C0.48,40.287 3.181,42.989 6.501,42.989 L37.959,42.989 C38.09,42.989 38.214,42.961 38.326,42.91 C40.55,42.501 42.24,40.548 42.24,38.207 L42.24,23.961 C42.24,23.469 41.84,23.069 41.348,23.069 Z M40.457,38.206 C40.457,39.859 39.112,41.205 37.459,41.205 C35.806,41.205 34.461,39.859 34.461,38.206 L34.461,24.852 L40.457,24.852 L40.457,38.206 Z M2.263,2.221 L32.677,2.221 L32.677,38.206 C32.677,39.341 33.074,40.385 33.737,41.205 L6.501,41.205 C4.164,41.205 2.264,39.305 2.264,36.968 L2.264,2.221 L2.263,2.221 Z" id="Shape" fill="#000000"></path>
                <path d="M7.357,23.872 L9.745,23.872 C10.215,23.872 10.597,23.491 10.597,23.02 L10.597,20.632 C10.597,20.162 10.216,19.78 9.745,19.78 L7.357,19.78 C6.887,19.78 6.505,20.161 6.505,20.632 L6.505,23.02 C6.505,23.491 6.887,23.872 7.357,23.872 Z" id="Path" fill="#000000"></path>
                <path d="M14.526,22.718 L28.464,22.718 C28.956,22.718 29.356,22.319 29.356,21.826 C29.356,21.333 28.957,20.934 28.464,20.934 L14.526,20.934 C14.034,20.934 13.634,21.333 13.634,21.826 C13.634,22.319 14.034,22.718 14.526,22.718 Z" id="Path" fill="#000000"></path>
                <path d="M7.357,14.409 L9.745,14.409 C10.215,14.409 10.597,14.027 10.597,13.557 L10.597,11.169 C10.597,10.698 10.216,10.317 9.745,10.317 L7.357,10.317 C6.887,10.317 6.505,10.698 6.505,11.169 L6.505,13.557 C6.505,14.028 6.887,14.409 7.357,14.409 Z" id="Path" fill="#000000"></path>
                <path d="M14.526,13.255 L28.464,13.255 C28.956,13.255 29.356,12.856 29.356,12.363 C29.356,11.87 28.957,11.471 28.464,11.471 L14.526,11.471 C14.034,11.471 13.634,11.87 13.634,12.363 C13.634,12.856 14.034,13.255 14.526,13.255 Z" id="Path" fill="#000000"></path>
                <path d="M7.357,33.336 L9.745,33.336 C10.215,33.336 10.597,32.955 10.597,32.484 L10.597,30.096 C10.597,29.626 10.216,29.244 9.745,29.244 L7.357,29.244 C6.887,29.244 6.505,29.625 6.505,30.096 L6.505,32.484 C6.505,32.954 6.887,33.336 7.357,33.336 Z" id="Path" fill="#000000"></path>
                <path d="M14.526,32.182 L28.464,32.182 C28.956,32.182 29.356,31.783 29.356,31.29 C29.356,30.797 28.957,30.398 28.464,30.398 L14.526,30.398 C14.034,30.398 13.634,30.797 13.634,31.29 C13.634,31.783 14.034,32.182 14.526,32.182 Z" id="Path" fill="#000000"></path>
            </g>
        </g>
    </g>
</svg>