<?xml version="1.0" encoding="UTF-8"?>
<svg width="259px" height="38px" viewBox="0 0 259 38" version="1.1" xmlns="http://www.w3.org/2000/svg" xmlns:xlink="http://www.w3.org/1999/xlink">
    <title>gateway(1)</title>
    <g id="Landings" stroke="none" stroke-width="1" fill="none" fill-rule="evenodd">
        <g id="Product-logos" transform="translate(-83.000000, -133.000000)" fill-rule="nonzero">
            <g id="gateway(1)" transform="translate(83.000000, 133.000000)">
                <g id="Group">
                    <polyline id="Path" fill="#F9BD17" points="33.133 21.274 42.84 15.741 42.84 1.653 30.546 1.653 30.546 9.897 1.046 26.854 1.046 36.344 10.568 36.344 10.568 32.11 21.958 25.535 33.348 32.11 33.348 36.346 42.84 36.344 42.84 26.854 13.341 9.897 13.341 1.653 1.046 1.653 1.046 15.741 10.753 21.274"></polyline>
                    <path d="M33.348,37.096 C33.149,37.096 32.958,37.017 32.818,36.876 C32.678,36.735 32.598,36.545 32.598,36.346 L32.598,32.543 L21.957,26.4 L11.316,32.543 L11.316,36.344 C11.316,36.758 10.98,37.094 10.566,37.094 L1.047,37.094 C0.633,37.094 0.297,36.758 0.297,36.344 L0.297,26.854 C0.297,26.585 0.441,26.337 0.673,26.204 L9.244,21.277 L0.676,16.392 C0.442,16.259 0.297,16.01 0.297,15.741 L0.297,1.654 C0.297,1.24 0.633,0.904 1.047,0.904 L13.341,0.904 C13.755,0.904 14.091,1.24 14.091,1.654 L14.091,9.464 L21.944,13.978 L29.797,9.464 L29.797,1.654 C29.797,1.24 30.133,0.904 30.547,0.904 L42.84,0.904 C43.254,0.904 43.59,1.24 43.59,1.654 L43.59,15.741 C43.59,16.011 43.445,16.26 43.211,16.392 L34.643,21.277 L43.214,26.204 C43.446,26.338 43.59,26.586 43.59,26.854 L43.59,36.344 C43.59,36.758 43.254,37.094 42.84,37.094 L33.348,37.096 Z M21.958,24.785 C22.088,24.785 22.217,24.818 22.333,24.886 L33.724,31.462 C33.956,31.596 34.099,31.844 34.099,32.111 L34.099,35.596 L42.09,35.594 L42.09,27.287 L21.944,15.707 L1.797,27.288 L1.797,35.595 L9.818,35.595 L9.818,32.112 C9.818,31.844 9.961,31.596 10.193,31.463 L21.584,24.887 C21.699,24.818 21.828,24.785 21.958,24.785 Z M23.448,14.842 L33.134,20.409 L42.09,15.305 L42.09,2.404 L31.296,2.404 L31.296,9.897 C31.296,10.166 31.152,10.414 30.92,10.547 L23.448,14.842 Z M1.797,15.305 L10.753,20.409 L20.439,14.842 L12.967,10.547 C12.735,10.413 12.591,10.165 12.591,9.897 L12.591,2.404 L1.797,2.404 L1.797,15.305 Z" id="Shape" fill="#000000"></path>
                </g>
                <g id="Group" transform="translate(65.000000, 4.000000)" fill="#000000">
                    <path d="M0.854,14.979 C0.854,6.199 7.449,0.486 15.556,0.486 C21.017,0.486 24.587,3.09 26.856,6.325 L22.824,8.594 C21.353,6.493 18.707,4.856 15.556,4.856 C10.011,4.856 5.895,9.098 5.895,14.98 C5.895,20.861 10.011,25.145 15.556,25.145 C18.412,25.145 20.933,23.801 22.194,22.624 L22.194,18.256 L13.834,18.256 L13.834,13.929 L27.108,13.929 L27.108,24.43 C24.336,27.496 20.429,29.513 15.556,29.513 C7.449,29.513 0.854,23.758 0.854,14.979 Z" id="Path"></path>
                    <path d="M52.055,28.967 L49.997,23.59 L37.143,23.59 L35.084,28.967 L29.497,28.967 L40.503,0.947 L46.636,0.947 L57.642,28.967 L52.055,28.967 Z M43.57,5.905 L38.529,19.263 L48.611,19.263 L43.57,5.905 Z" id="Shape"></path>
                    <polygon id="Path" points="65.074 28.967 65.074 5.275 56.588 5.275 56.588 0.948 78.475 0.948 78.475 5.275 69.989 5.275 69.989 28.967"></polygon>
                    <polygon id="Path" points="83.049 28.967 83.049 0.947 102.246 0.947 102.246 5.274 87.964 5.274 87.964 12.542 101.952 12.542 101.952 16.868 87.964 16.868 87.964 24.639 102.246 24.639 102.246 28.966 83.049 28.966"></polygon>
                    <polygon id="Path" points="129.126 28.967 123.665 8.299 118.246 28.967 112.995 28.967 104.972 0.947 110.475 0.947 115.936 22.539 121.733 0.947 125.64 0.947 131.437 22.539 136.856 0.947 142.359 0.947 134.378 28.967"></polygon>
                    <path d="M163.775,28.967 L161.717,23.59 L148.863,23.59 L146.804,28.967 L141.217,28.967 L152.223,0.947 L158.356,0.947 L169.362,28.967 L163.775,28.967 Z M155.29,5.905 L150.249,19.263 L160.331,19.263 L155.29,5.905 Z" id="Shape"></path>
                    <polygon id="Path" points="178.053 28.967 178.053 17.331 167.173 0.948 172.802 0.948 180.531 12.963 188.177 0.948 193.806 0.948 182.968 17.331 182.968 28.968 178.053 28.968"></polygon>
                </g>
            </g>
        </g>
    </g>
</svg>